# xmcd
#
# Track frame offsets:
#	150
#	13892
#	30469
#	46123
#	65626
#	86221
#	100400
#	117908
#	135234
#	152128
#
# Disc length: 2245 seconds
#
# Revision: 0
# Processed by: cddbd v1.4PL0 Copyright (c) Steve Scherf et al.
# Submitted via: audiograbber 1.81.02
#
DISCID=7e08c30a
DTITLE=Kris Gordon and Southern Sky - a moment like this
DYEAR=2002
DGENRE=Country
TTITLE0=A Monent Like This
TTITLE1=Take Me As I Am
TTITLE2=Friday At The Latest
TTITLE3=Circle Drive
TTITLE4=No Reason To Stay
TTITLE5=Love Mer Like A River
TTITLE6=When She Used To Love Me
TTITLE7=No More Rivers To Cross
TTITLE8=That's Where Your Love Comes In
TTITLE9=Hot Water, Thin Ice
EXTD=
EXTT0=
EXTT1=
EXTT2=
EXTT3=
EXTT4=
EXTT5=
EXTT6=
EXTT7=
EXTT8=
EXTT9=
PLAYORDER=
